# FreeCAD v0.21 build1 Arch module
# http://www.freecad.org
#mtllib ball-Sphere.mtl
#o Sphere
usemtl color_cccccc
v 421.275879 103.835175 -900.968872
v 642.787598 -0.0 -766.044434
v 342.020142 -0.0 -939.692627
v 324.766632 287.71814 -900.968872
v 0.0 0.0 -1000.0
v 153.8573 405.688354 -900.968872
v -52.298904 430.720245 -900.968872
v 692.277405 363.335205 -623.489807
v 866.025391 -0.0 -500.0
v -246.47406 357.079315 -900.968872
v 444.13089 643.434692 -623.489807
v -384.184967 201.635834 -900.968872
v 94.239372 776.131042 -623.489807
v 946.598267 233.315521 -222.520935
v 984.807739 -0.0 -173.648178
v -433.883728 0.0 -900.968872
v -277.241272 731.025146 -623.489807
v 729.744019 646.496765 -222.520935
v -384.184967 -201.635834 -900.968872
v -585.20929 518.450195 -623.489807
v 345.714203 911.573425 -222.520935
v -246.47406 -357.079315 -900.968872
v -759.112854 187.104523 -623.489807
v -117.514572 967.81958 -222.520935
v 863.255798 453.071594 222.520935
v 984.807739 -0.0 173.648178
v 866.025391 -0.0 500.0
v -52.298904 -430.720245 -900.968872
v -759.112854 -187.104523 -623.489807
v -553.822205 802.349915 -222.520935
v 553.822205 802.349915 222.520935
v 153.8573 -405.688354 -900.968872
v -585.20929 -518.450195 -623.489807
v -863.255798 453.071594 -222.520935
v 117.514572 967.81958 222.520935
v 324.766632 -287.71814 -900.968872
v 759.112854 187.104523 623.489807
v 642.787598 -0.0 766.044434
v -277.241272 -731.025146 -623.489807
v -974.927917 0.0 -222.520935
v -345.714203 911.573425 222.520935
v 421.275879 -103.835175 -900.968872
v 585.20929 518.450195 623.489807
v 94.239372 -776.131042 -623.489807
v -863.255798 -453.071594 -222.520935
v -729.744019 646.496765 222.520935
v 277.241272 731.025146 623.489807
v 444.13089 -643.434692 -623.489807
v -553.822205 -802.349915 -222.520935
v -946.598267 233.315521 222.520935
v -94.239372 776.131042 623.489807
v 692.277405 -363.335205 -623.489807
v 384.184967 201.635834 900.968872
v 342.020142 -0.0 939.692627
v 0.0 0.0 1000.0
v -117.514572 -967.81958 -222.520935
v -946.598267 -233.315521 222.520935
v -444.13089 643.434692 623.489807
v 246.47406 357.079315 900.968872
v 345.714203 -911.573425 -222.520935
v -729.744019 -646.496765 222.520935
v -692.277405 363.335205 623.489807
v 52.298904 430.720245 900.968872
v 729.744019 -646.496765 -222.520935
v -345.714203 -911.573425 222.520935
v -781.831482 0.0 623.489807
v -153.8573 405.688354 900.968872
v 946.598267 -233.315521 -222.520935
v 117.514572 -967.81958 222.520935
v -692.277405 -363.335205 623.489807
v -324.766632 287.71814 900.968872
v 553.822205 -802.349915 222.520935
v -444.13089 -643.434692 623.489807
v -421.275879 103.835175 900.968872
v 863.255798 -453.071594 222.520935
v -94.239372 -776.131042 623.489807
v -421.275879 -103.835175 900.968872
v 277.241272 -731.025146 623.489807
v -324.766632 -287.71814 900.968872
v 585.20929 -518.450195 623.489807
v -153.8573 -405.688354 900.968872
v 759.112854 -187.104523 623.489807
v 52.298904 -430.720245 900.968872
v 246.47406 -357.079315 900.968872
v 384.184967 -201.635834 900.968872
vn 0.499141663312912 -0.05857032164931297 -0.8645385503768921
vn 0.17190051078796387 0.14151881635189056 -0.9748961925506592
vn 0.2751813530921936 0.1444263607263565 -0.9504821300506592
vn 0.5967938303947449 0.31322163343429565 -0.7387349009513855
vn 0.1299940049648285 0.1883287876844406 -0.973464846611023
vn 0.02758319303393364 0.22716808319091797 -0.973464846611023
vn 0.7578059434890747 0.1462649703025818 -0.6358746886253357
vn 0.5536645650863647 0.2377159297466278 -0.798089325428009
vn -0.08114656805992126 0.21396590769290924 -0.973464846611023
vn 0.3464561104774475 0.5019282102584839 -0.7924873232841492
vn 0.48582229018211365 0.4304010272026062 -0.7607441544532776
vn -0.17128662765026093 0.1517467051744461 -0.973464846611023
vn 0.0735139325261116 0.6054415106773376 -0.7924873232841492
vn 0.23015695810317993 0.6068739891052246 -0.7607440948486328
vn 0.936530351638794 0.08197104185819626 -0.34086915850639343
vn -0.22218699753284454 0.05476416274905205 -0.973464846611023
vn -0.21626943349838257 0.57025545835495 -0.7924873232841492
vn -0.07823452353477478 0.6443195343017578 -0.7607441544532776
vn 0.8942444324493408 0.3219550549983978 -0.3109208941459656
vn 0.6591047048568726 0.5839158892631531 -0.47394436597824097
vn 0.7431268095970154 0.39002302289009094 -0.5437321066856384
vn -0.22218701243400574 -0.054764166474342346 -0.973464846611023
vn -0.45650792121887207 0.40443071722984314 -0.7924874424934387
vn -0.3687034547328949 0.534159243106842 -0.7607442140579224
vn 0.5254328846931458 0.7612209320068359 -0.38008296489715576
vn 0.3122490346431732 0.8233330249786377 -0.47394436597824097
vn -0.17128662765026093 -0.1517467051744461 -0.973464846611023
vn -0.5747069120407104 0.30162936449050903 -0.7607441544532776
vn -0.5921660661697388 0.14595581591129303 -0.7924873232841492
vn -0.10613911598920822 0.8741345405578613 -0.47394436597824097
vn 0.11149068921804428 0.9182084202766418 -0.38008296489715576
vn 0.9658449292182922 0.2591208815574646 0.0
vn 0.9186591506004333 0.21039387583732605 0.3343645930290222
vn 0.9791027307510376 0.18012192845344543 0.09441347420215607
vn 0.8836674690246582 0.46378445625305176 -0.06352756917476654
vn -0.08114656060934067 -0.21396587789058685 -0.973464846611023
vn -0.6490519046783447 0.0 -0.7607441544532776
vn -0.5921660661697388 -0.14595581591129303 -0.7924873232841492
vn -0.5002120733261108 0.7246823906898499 -0.47394436597824097
vn -0.327992707490921 0.8648455142974854 -0.38008296489715576
vn 0.566917359828949 0.821321427822113 -0.06352753192186356
vn 0.7469987869262695 0.6617831587791443 0.06352747976779938
vn 0.02758319303393364 -0.22716808319091797 -0.973464846611023
vn -0.5747069120407104 -0.30162936449050903 -0.7607441544532776
vn -0.45650792121887207 -0.40443071722984314 -0.7924874424934387
vn -0.6923368573188782 0.6133569478988647 -0.380082905292511
vn -0.7796925902366638 0.4092140793800354 -0.47394442558288574
vn 0.3538886308670044 0.9331275820732117 0.06352755427360535
vn 0.12029320746660233 0.9907037019729614 -0.06352752447128296
vn 0.17190051078796387 -0.14151881635189056 -0.9748961925506592
vn 0.1299940049648285 -0.1883287876844406 -0.973464846611023
vn 0.7659748196601868 0.013478059321641922 0.6427292227745056
vn -0.3687034547328949 -0.534159243106842 -0.7607442140579224
vn -0.21626943349838257 -0.57025545835495 -0.7924873232841492
vn -0.8980749249458313 0.2213555872440338 -0.38008302450180054
vn -0.880554735660553 0.0 -0.4739444851875305
vn -0.12029321491718292 0.9907037019729614 0.06352752447128296
vn -0.3538886308670044 0.9331275820732117 -0.06352754682302475
vn 0.5967938303947449 -0.31322163343429565 -0.7387349009513855
vn 0.499141663312912 0.05857032164931297 -0.8645385503768921
vn 0.2751813232898712 -0.14442633092403412 -0.9504820704460144
vn 0.883733332157135 0.46381887793540955 0.06234988197684288
vn 0.6923368573188782 0.61335688829422 0.380082905292511
vn 0.803276538848877 0.3146333694458008 0.5057199597358704
vn 0.5314885973930359 0.2789466381072998 0.7998178005218506
vn -0.07823452353477478 -0.6443195343017578 -0.7607441544532776
vn 0.0735139325261116 -0.6054415106773376 -0.7924873232841492
vn -0.7796925902366638 -0.4092140793800354 -0.47394442558288574
vn -0.8980749249458313 -0.2213555872440338 -0.3800830543041229
vn -0.7469987869262695 0.6617832183837891 -0.06352748721837997
vn -0.566917359828949 0.8213214874267578 0.06352755427360535
vn 0.32799267768859863 0.8648455739021301 0.3800829350948334
vn 0.5002120733261108 0.7246823906898499 0.47394436597824097
vn 0.3464561104774475 -0.5019282102584839 -0.7924873232841492
vn 0.23015695810317993 -0.6068739891052246 -0.7607440948486328
vn -0.6923368573188782 -0.6133569478988647 -0.380082905292511
vn -0.5002120733261108 -0.7246823906898499 -0.47394436597824097
vn -0.8836674690246582 0.46378445625305176 0.06352757662534714
vn -0.968980610370636 0.2388322502374649 -0.06352748721837997
vn 0.10613910853862762 0.8741345405578613 0.47394442558288574
vn -0.11149067431688309 0.9182084202766418 0.38008296489715576
vn 0.5536645650863647 -0.2377159297466278 -0.798089325428009
vn 0.48582229018211365 -0.4304010272026062 -0.7607441544532776
vn 0.7578059434890747 -0.1462649703025818 -0.6358746886253357
vn 0.4990491271018982 0.061644069850444794 0.8643783330917358
vn 0.17165537178516388 0.15106438100337982 0.9735060334205627
vn 0.6036674380302429 0.27299991250038147 0.7490372061729431
vn -0.10613911598920822 -0.8741345405578613 -0.47394436597824097
vn -0.327992707490921 -0.8648455142974854 -0.38008296489715576
vn -0.968980610370636 -0.2388322502374649 -0.06352748721837997
vn -0.9979800581932068 0.0 0.06352756172418594
vn -0.5254328846931458 0.7612208724021912 0.38008296489715576
vn -0.31224900484085083 0.8233330249786377 0.47394442558288574
vn 0.3687034547328949 0.5341591835021973 0.7607441544532776
vn 0.17128662765026093 0.1517467051744461 0.973464846611023
vn 0.45650795102119446 0.4044307470321655 0.792487382888794
vn 0.3122490346431732 -0.8233330249786377 -0.47394436597824097
vn 0.11149068921804428 -0.9182084202766418 -0.38008296489715576
vn -0.8836674690246582 -0.46378445625305176 0.06352755427360535
vn -0.7469987869262695 -0.6617832183837891 -0.06352748721837997
vn -0.8190047144889832 0.429846853017807 0.38008296489715576
vn -0.6591047048568726 0.5839158892631531 0.47394442558288574
vn 0.07823454588651657 0.6443195343017578 0.7607441544532776
vn 0.08114656060934067 0.21396587789058685 0.973464846611023
vn 0.216269388794899 0.57025545835495 0.7924874424934387
vn 0.5254328846931458 -0.7612208724021912 -0.38008296489715576
vn 0.6591047048568726 -0.5839158892631531 -0.47394436597824097
vn 0.8942444324493408 -0.3219550549983978 -0.3109208941459656
vn -0.3538886308670044 -0.9331275820732117 -0.06352754682302475
vn -0.566917359828949 -0.8213214874267578 0.06352753937244415
vn -0.9249524474143982 0.0 0.38008299469947815
vn -0.854967474937439 0.21073053777217865 0.47394436597824097
vn -0.02758319303393364 0.22716808319091797 0.973464846611023
vn -0.23015695810317993 0.6068739891052246 0.7607440948486328
vn -0.07351390272378922 0.6054415702819824 0.7924873232841492
vn 0.936530351638794 -0.08197104185819626 -0.34086915850639343
vn 0.7431268095970154 -0.39002302289009094 -0.5437321066856384
vn 0.12029320746660233 -0.9907037019729614 -0.06352752447128296
vn -0.12029321491718292 -0.9907037019729614 0.06352753192186356
vn -0.854967474937439 -0.21073053777217865 0.4739443361759186
vn -0.8190047144889832 -0.429846853017807 0.38008296489715576
vn -0.3464561104774475 0.5019282102584839 0.7924873232841492
vn -0.1299940049648285 0.1883287876844406 0.973464846611023
vn -0.48582231998443604 0.4304010570049286 0.7607441544532776
vn 0.566917359828949 -0.821321427822113 -0.06352753192186356
vn 0.3538886308670044 -0.9331275820732117 0.06352753192186356
vn -0.5254328846931458 -0.7612208724021912 0.38008296489715576
vn -0.6591047048568726 -0.5839158892631531 0.47394442558288574
vn -0.6301916241645813 0.15532827377319336 0.7607441544532776
vn -0.20262467861175537 0.10634566843509674 0.973464846611023
vn -0.5400292277336121 0.28342926502227783 0.7924874424934387
vn 0.9791027307510376 -0.18012192845344543 0.09441347420215607
vn 0.8836674690246582 -0.46378445625305176 -0.06352756917476654
vn 0.9658449292182922 -0.2591208815574646 0.0
vn 0.9186591506004333 -0.21039387583732605 0.3343645930290222
vn 0.7469987869262695 -0.6617831587791443 0.06352747976779938
vn -0.11149067431688309 -0.9182084202766418 0.38008296489715576
vn -0.31224900484085083 -0.8233330249786377 0.47394442558288574
vn -0.2288365513086319 0.0 0.973464846611023
vn -0.6301916241645813 -0.15532827377319336 0.7607441544532776
vn -0.6098883152008057 0.0 0.792487382888794
vn 0.32799267768859863 -0.8648455739021301 0.3800829350948334
vn 0.10613910853862762 -0.8741345405578613 0.47394436597824097
vn -0.48582231998443604 -0.4304010570049286 0.7607441544532776
vn -0.5400292277336121 -0.28342926502227783 0.7924874424934387
vn -0.20262467861175537 -0.10634566843509674 0.973464846611023
vn 0.803276538848877 -0.3146333694458008 0.5057199597358704
vn 0.6923368573188782 -0.61335688829422 0.380082905292511
vn 0.5002120733261108 -0.7246823906898499 0.4739443361759186
vn -0.23015695810317993 -0.6068739891052246 0.7607440948486328
vn -0.3464561104774475 -0.5019282102584839 0.7924873232841492
vn -0.1299940049648285 -0.1883287876844406 0.973464846611023
vn 0.7659748196601868 -0.013478059321641922 0.6427292227745056
vn 0.883733332157135 -0.46381887793540955 0.0623498372733593
vn 0.5314885973930359 -0.2789466381072998 0.7998178005218506
vn -0.07351389527320862 -0.6054415106773376 0.7924873232841492
vn -0.02758319303393364 -0.22716808319091797 0.973464846611023
vn 0.07823454588651657 -0.6443195343017578 0.7607441544532776
vn 0.3687034547328949 -0.5341591835021973 0.7607441544532776
vn 0.08114656805992126 -0.21396590769290924 0.973464846611023
vn 0.216269388794899 -0.57025545835495 0.7924874424934387
vn 0.4990491271018982 -0.061644069850444794 0.8643783330917358
vn 0.17165537178516388 -0.15106438100337982 0.9735060334205627
vn 0.17128662765026093 -0.1517467051744461 0.973464846611023
vn 0.45650795102119446 -0.4044307470321655 0.792487382888794
vn 0.6036674380302429 -0.27299991250038147 0.7490372061729431
f 1//1 2//1 3//1 
f 4//2 3//2 5//2 
f 4//3 1//3 3//3 
f 4//4 2//4 1//4 
f 6//5 4//5 5//5 
f 7//6 6//6 5//6 
f 8//7 9//7 2//7 
f 8//8 2//8 4//8 
f 10//9 7//9 5//9 
f 11//10 4//10 6//10 
f 11//11 8//11 4//11 
f 12//12 10//12 5//12 
f 13//13 6//13 7//13 
f 13//14 11//14 6//14 
f 14//15 15//15 9//15 
f 16//16 12//16 5//16 
f 17//17 7//17 10//17 
f 17//18 13//18 7//18 
f 18//19 9//19 8//19 
f 18//20 8//20 11//20 
f 18//21 14//21 9//21 
f 19//22 16//22 5//22 
f 20//23 10//23 12//23 
f 20//24 17//24 10//24 
f 21//25 18//25 11//25 
f 21//26 11//26 13//26 
f 22//27 19//27 5//27 
f 23//28 20//28 12//28 
f 23//29 12//29 16//29 
f 24//30 13//30 17//30 
f 24//31 21//31 13//31 
f 25//32 26//32 15//32 
f 25//33 27//33 26//33 
f 25//34 15//34 14//34 
f 25//35 14//35 18//35 
f 28//36 22//36 5//36 
f 29//37 23//37 16//37 
f 29//38 16//38 19//38 
f 30//39 17//39 20//39 
f 30//40 24//40 17//40 
f 31//41 18//41 21//41 
f 31//42 25//42 18//42 
f 32//43 28//43 5//43 
f 33//44 29//44 19//44 
f 33//45 19//45 22//45 
f 34//46 30//46 20//46 
f 34//47 20//47 23//47 
f 35//48 31//48 21//48 
f 35//49 21//49 24//49 
f 36//50 5//50 3//50 
f 36//51 32//51 5//51 
f 37//52 38//52 27//52 
f 39//53 33//53 22//53 
f 39//54 22//54 28//54 
f 40//55 34//55 23//55 
f 40//56 23//56 29//56 
f 41//57 35//57 24//57 
f 41//58 24//58 30//58 
f 42//59 2//59 36//59 
f 42//60 3//60 2//60 
f 42//61 36//61 3//61 
f 43//62 37//62 27//62 
f 43//63 25//63 31//63 
f 43//64 27//64 25//64 
f 43//65 38//65 37//65 
f 44//66 39//66 28//66 
f 44//67 28//67 32//67 
f 45//68 29//68 33//68 
f 45//69 40//69 29//69 
f 46//70 30//70 34//70 
f 46//71 41//71 30//71 
f 47//72 31//72 35//72 
f 47//73 43//73 31//73 
f 48//74 32//74 36//74 
f 48//75 44//75 32//75 
f 49//76 45//76 33//76 
f 49//77 33//77 39//77 
f 50//78 46//78 34//78 
f 50//79 34//79 40//79 
f 51//80 47//80 35//80 
f 51//81 35//81 41//81 
f 52//82 36//82 2//82 
f 52//83 48//83 36//83 
f 52//84 2//84 9//84 
f 53//85 54//85 38//85 
f 53//86 55//86 54//86 
f 53//87 38//87 43//87 
f 56//88 39//88 44//88 
f 56//89 49//89 39//89 
f 57//90 40//90 45//90 
f 57//91 50//91 40//91 
f 58//92 41//92 46//92 
f 58//93 51//93 41//93 
f 59//94 43//94 47//94 
f 59//95 55//95 53//95 
f 59//96 53//96 43//96 
f 60//97 44//97 48//97 
f 60//98 56//98 44//98 
f 61//99 57//99 45//99 
f 61//100 45//100 49//100 
f 62//101 46//101 50//101 
f 62//102 58//102 46//102 
f 63//103 47//103 51//103 
f 63//104 55//104 59//104 
f 63//105 59//105 47//105 
f 64//106 60//106 48//106 
f 64//107 48//107 52//107 
f 64//108 52//108 9//108 
f 65//109 49//109 56//109 
f 65//110 61//110 49//110 
f 66//111 50//111 57//111 
f 66//112 62//112 50//112 
f 67//113 55//113 63//113 
f 67//114 51//114 58//114 
f 67//115 63//115 51//115 
f 68//116 9//116 15//116 
f 68//117 64//117 9//117 
f 69//118 56//118 60//118 
f 69//119 65//119 56//119 
f 70//120 66//120 57//120 
f 70//121 57//121 61//121 
f 71//122 67//122 58//122 
f 71//123 55//123 67//123 
f 71//124 58//124 62//124 
f 72//125 60//125 64//125 
f 72//126 69//126 60//126 
f 73//127 61//127 65//127 
f 73//128 70//128 61//128 
f 74//129 62//129 66//129 
f 74//130 55//130 71//130 
f 74//131 71//131 62//131 
f 75//132 68//132 15//132 
f 75//133 64//133 68//133 
f 75//134 15//134 26//134 
f 75//135 26//135 27//135 
f 75//136 72//136 64//136 
f 76//137 65//137 69//137 
f 76//138 73//138 65//138 
f 77//139 55//139 74//139 
f 77//140 66//140 70//140 
f 77//141 74//141 66//141 
f 78//142 69//142 72//142 
f 78//143 76//143 69//143 
f 79//144 70//144 73//144 
f 79//145 77//145 70//145 
f 79//146 55//146 77//146 
f 80//147 75//147 27//147 
f 80//148 72//148 75//148 
f 80//149 78//149 72//149 
f 81//150 73//150 76//150 
f 81//151 79//151 73//151 
f 81//152 55//152 79//152 
f 82//153 27//153 38//153 
f 82//154 80//154 27//154 
f 82//155 38//155 80//155 
f 83//156 81//156 76//156 
f 83//157 55//157 81//157 
f 83//158 76//158 78//158 
f 84//159 78//159 80//159 
f 84//160 55//160 83//160 
f 84//161 83//161 78//161 
f 85//162 38//162 54//162 
f 85//163 54//163 55//163 
f 85//164 55//164 84//164 
f 85//165 84//165 80//165 
f 85//166 80//166 38//166 
